<svg xmlns="http://www.w3.org/2000/svg" viewBox="0 0 734.94 980">
    <path d="M39.4,2.69A61.86,61.86,0,0,0,2.64,38.87C0,46.15-.23,90.75.15,494L.72,941l5.17,8.8c6.7,11.49,19.91,23.36,30.44,27.38,7.85,2.87,32.93,3.06,333.89,2.68,309.77-.57,325.85-.77,331.79-4a68.53,68.53,0,0,0,27.57-29.1l5.36-11.49V556.93c0-339.06-.38-379.27-3.06-387.69S721.73,152.78,653,84.43C594.61,26.61,574.7,8,567.42,4.59L557.85,0,302.26.19C92.24.2,45.33.58,39.4,2.69ZM530.09,113c0,80.22.38,83.28,11.3,88.83,5,2.68,16.27,3.06,79.64,3.06h73.71V568.24c0,323.75-.38,363.95-3.06,367.59L688.81,940H367.35C77.68,940,45.71,939.66,43,937S40,891.22,40,491.28c0-462.17-.19-446.85,7.66-449.72,1.53-.57,110.85-1.15,242.76-1.15l239.7-.19Zm93.81-.39c27.38,26.8,49.78,49.4,49.78,50.35,0,1.15-20.29,1.53-51.12,1.34l-51.31-.57-.57-50.35c-.19-33.12.19-50.35,1.53-49.78C573.16,63.76,596.52,86,623.9,112.58Z"/>
    <path d="M313.75,372c-53,18-83.09,78.3-65.09,130.38,5.36,15.7,12.25,27,24.51,39.82,19.72,20.68,40.59,30.25,66.43,30.25,24.7,0,52.27-12.06,67.58-29.48,10.72-12.44,6.89-28.72-8-33.69-8-2.68-15.13-.19-24.12,8.61C350.12,542,306.66,534.74,291,503.72c-8.62-16.66-9.57-40.59-2.87-60.5,4.79-13.59,19.91-28.33,33.31-32.35,20.68-6.13,37.14-2.68,53.41,11.29,7.08,6.13,11.87,8.62,15.7,8.62,12.44,0,20.68-8.23,20.87-20.68,0-10-6.7-18-23.93-28.14C362.95,367.41,337.3,364,313.75,372Z"/>
    <path d="M447.38,377.17c-5.93,4.59-10,13.78-8.62,19.34.58,2.11,15.89,40.59,34.27,85.39,20.29,50,34.84,83.09,37.72,86,5.93,5.94,18.57,6.32,25.65.77,3.64-2.87,13-24.51,38.67-88.45,37.14-92.85,37-92.47,25.66-101.85-6.89-5.93-15.51-6.51-23.74-1.53-5,3.06-8.62,10.72-28.53,60.88-12.44,31.4-23.36,57.82-23.93,58.58-.76,1-12.06-24.89-25.08-57.06C478.58,387.51,475.14,380,470,377,462.31,372.38,453.32,372.38,447.38,377.17Z"/>
    <path d="M140.29,654.78c-12.64,5.17-16.27,23-6.7,32.74l5.55,5.55h456l5.93-5.36c5-4.4,6.13-6.89,6.13-13,0-9.57-4.79-17-12.44-19.72C587.52,652.48,146.42,652.29,140.29,654.78Z"/>
    <path d="M134.55,783.82c-9.38,9.38-8.61,21.82,1.91,30.25,3.83,3.06,18.76,3.45,231.08,3.45,224.76,0,227.25,0,232-3.83,7.27-5.74,10-15.32,6.32-23.55-5.55-13.78,10.53-12.83-239.7-12.83H141.06Z"/>
</svg>
